<svg width="18" height="18" viewBox="0 0 18 18" fill="none" xmlns="http://www.w3.org/2000/svg">
<circle cx="9" cy="9" r="9" fill="#212121"/>
<path d="M9 3C5.6865 3 3 5.6865 3 9C3 12.3135 5.6865 15 9 15C12.3135 15 15 12.3135 15 9C15 5.6865 12.3135 3 9 3ZM13 9C13 11.209 11.209 13 9 13C6.791 13 5 11.209 5 9C5 6.791 6.791 5 9 5C11.209 5 13 6.791 13 9ZM3.5 9C3.5 5.9675 5.9675 3.5 9 3.5V4.5C6.519 4.5 4.5 6.519 4.5 9C4.5 10.2405 5.0045 11.3655 5.8195 12.1805L5.1125 12.8875L5.12 12.8945C4.12 11.8975 3.5 10.52 3.5 9V9Z" fill="#E8F1F0"/>
</svg>
